<svg xmlns="http://www.w3.org/2000/svg" viewBox="0 0 1080 1920">
  <defs>
    <linearGradient id="bg-m" x1="0%" y1="0%" x2="0%" y2="100%">
      <stop offset="0%" style="stop-color:#0f0c29;stop-opacity:1" />
      <stop offset="100%" style="stop-color:#24243e;stop-opacity:1" />
    </linearGradient>
  </defs>
  
  <rect width="1080" height="1920" fill="url(#bg-m)" />

  <!-- App Container -->
  <rect x="50" y="100" width="980" height="1720" rx="40" fill="#0a0a0a" opacity="0.9" />

  <!-- Header -->
  <rect x="50" y="100" width="980" height="150" rx="40" fill="#1e1e2e" opacity="0.8" />
  <rect x="100" y="150" width="100" height="100" rx="20" fill="#7c3aed" />
  <rect x="250" y="170" width="400" height="60" rx="10" fill="#fff" opacity="0.8" />

  <!-- Content Cards -->
  <rect x="100" y="300" width="880" height="600" rx="30" fill="#1e1e2e" stroke="#ffffff" stroke-opacity="0.1" />
  <rect x="150" y="350" width="400" height="50" rx="10" fill="#7c3aed" opacity="0.4" />
  
  <rect x="150" y="450" width="780" height="120" rx="20" fill="#000" opacity="0.3" />
  <rect x="150" y="600" width="780" height="250" rx="20" fill="#000" opacity="0.3" />
  
  <!-- Media Section -->
  <rect x="100" y="950" width="880" height="500" rx="30" fill="#1e1e2e" stroke="#ffffff" stroke-opacity="0.1" />
  <rect x="150" y="1000" width="300" height="50" rx="10" fill="#10b981" opacity="0.4" />
  
  <rect x="150" y="1100" width="360" height="300" rx="20" fill="#000" opacity="0.3" />
  <rect x="550" y="1100" width="360" height="300" rx="20" fill="#000" opacity="0.3" />

  <!-- FAB Button -->
  <circle cx="900" cy="1700" r="80" fill="#7c3aed" />
  <rect x="860" y="1690" width="80" height="20" rx="5" fill="#fff" />
  <rect x="890" y="1660" width="20" height="80" rx="5" fill="#fff" />

</svg>